<?xml version="1.0" standalone="no"?>
<!DOCTYPE svg PUBLIC "-//W3C//DTD SVG 20010904//EN"
 "http://www.w3.org/TR/2001/REC-SVG-20010904/DTD/svg10.dtd">
<svg version="1.0" xmlns="http://www.w3.org/2000/svg"
 width="872.000000pt" height="872.000000pt" viewBox="0 0 872.000000 872.000000"
 preserveAspectRatio="xMidYMid meet">
<metadata>
Created by potrace 1.14, written by Peter Selinger 2001-2017
</metadata>
<g transform="translate(0.000000,872.000000) scale(0.100000,-0.100000)"
fill="#000000" stroke="none">
<path d="M2826 6280 c-825 -567 -1505 -1030 -1512 -1030 -6 0 -67 13 -135 29
-300 71 -533 100 -857 108 -277 6 -291 4 -313 -48 -9 -23 -8 -57 4 -162 213
-1772 1495 -3221 3227 -3646 157 -38 367 -75 558 -98 217 -26 945 -26 1152 0
522 66 948 192 1405 417 673 331 1248 835 1662 1455 365 546 600 1172 683
1822 26 199 26 199 -11 235 l-30 31 -237 -6 c-334 -8 -609 -44 -908 -117
l-112 -27 -1503 1033 c-1287 885 -1509 1034 -1539 1034 -30 0 -241 -142 -1534
-1030z m2948 -130 c773 -531 1406 -968 1406 -971 0 -4 -12 -10 -27 -14 -52
-13 -358 -137 -446 -182 -88 -44 -89 -44 -116 -26 -16 10 -335 239 -710 508
-375 270 -692 493 -704 496 -12 3 -33 2 -46 -3 -14 -5 -193 -133 -399 -285
-348 -257 -376 -275 -396 -263 -11 7 -182 132 -378 277 -197 145 -367 267
-379 272 -12 4 -32 6 -44 4 -11 -3 -331 -228 -710 -500 -380 -273 -697 -500
-707 -506 -12 -8 -44 2 -140 46 -129 58 -236 102 -353 144 -38 14 -73 28 -77
32 -7 6 2802 1942 2814 1938 3 -1 639 -436 1412 -967z m-1249 -1100 c517 -382
973 -718 1013 -748 l73 -54 -118 -121 c-275 -282 -481 -552 -669 -879 -186
-321 -356 -740 -435 -1070 -12 -54 -26 -98 -29 -98 -3 0 -17 44 -29 97 -31
131 -112 379 -173 533 -337 850 -962 1586 -1751 2065 -71 43 -125 81 -120 85
4 4 291 211 637 459 554 398 631 450 645 438 9 -8 439 -326 956 -707z m1282
252 l632 -454 -130 -79 c-166 -100 -290 -187 -443 -309 -87 -69 -125 -94 -132
-86 -6 6 -286 213 -621 461 l-610 450 196 145 c108 80 255 189 326 241 72 53
135 94 140 91 6 -3 294 -210 642 -460z m-5292 -97 c191 -11 504 -61 512 -81 4
-12 -53 -473 -60 -480 -2 -2 -611 537 -645 571 -4 3 16 4 43 1 28 -3 95 -8
150 -11z m7860 -14 c-11 -10 -155 -139 -320 -286 -293 -260 -300 -266 -306
-238 -4 15 -19 124 -35 241 -21 168 -25 215 -15 222 36 21 463 77 611 79 83 1
84 1 65 -18z m-7051 -131 c120 -35 311 -100 379 -129 40 -17 47 -24 43 -43 -3
-13 -29 -205 -57 -428 -29 -223 -54 -407 -55 -409 -5 -6 -504 442 -504 453 0
19 71 560 75 574 6 16 2 17 119 -18z m6228 -251 c20 -151 37 -284 37 -296 1
-16 -61 -77 -244 -240 -135 -120 -249 -219 -253 -221 -6 -2 -114 780 -116 842
-1 15 24 28 129 68 137 52 383 128 400 124 6 -2 27 -126 47 -277z m-7024 -14
c160 -143 288 -263 284 -266 -7 -7 -430 -109 -449 -109 -6 0 -13 10 -16 23 -2
12 -21 79 -40 149 -35 125 -78 317 -95 430 -8 52 -7 56 8 45 9 -7 148 -129
308 -272z m7966 145 c-40 -219 -120 -520 -138 -520 -24 -1 -456 105 -454 111
4 8 611 549 614 546 2 -1 -8 -63 -22 -137z m-6207 -297 c61 -37 121 -75 134
-84 l22 -15 -71 -538 c-39 -296 -73 -541 -76 -543 -3 -3 -116 95 -253 217
-191 170 -248 227 -246 243 4 53 115 893 118 905 6 16 205 -84 372 -185z
m4577 -260 c32 -247 59 -456 60 -466 0 -11 -86 -96 -249 -241 -137 -123 -251
-223 -252 -222 -3 3 -143 1058 -143 1078 0 25 470 298 514 298 7 0 31 -154 70
-447z m-4113 -62 c72 -58 183 -155 247 -216 l116 -111 -75 -562 c-40 -309 -77
-562 -81 -562 -3 0 -116 97 -250 216 -134 119 -245 218 -247 220 -7 6 144
1124 151 1122 4 -2 67 -50 139 -107z m3440 -465 c38 -291 68 -535 67 -542 -5
-22 -498 -455 -503 -442 -2 7 -36 262 -76 566 l-72 553 44 45 c69 71 254 233
364 319 94 73 100 77 103 54 2 -13 35 -262 73 -553z m-4872 234 c143 -127 170
-156 155 -162 -11 -4 -190 -48 -399 -98 -209 -50 -390 -93 -402 -97 -21 -5
-30 9 -97 146 -84 172 -162 359 -152 368 3 3 131 36 283 73 l278 67 80 -72
c44 -39 158 -140 254 -225z m6704 225 c149 -36 273 -67 275 -70 10 -10 -138
-353 -200 -462 -17 -29 -35 -53 -41 -53 -28 1 -818 196 -820 202 -3 11 486
447 501 447 8 1 136 -28 285 -64z m-4585 -694 c90 -116 232 -324 279 -411 l30
-55 -58 -433 c-32 -238 -59 -437 -61 -443 -2 -5 -117 92 -256 216 -211 189
-251 229 -247 248 2 12 34 249 70 527 36 278 68 516 71 530 6 24 7 24 47 -24
23 -27 79 -97 125 -155z m2087 -346 c36 -280 67 -521 68 -535 2 -22 -36 -60
-248 -249 -137 -123 -251 -218 -253 -211 -3 7 -30 206 -62 444 l-57 431 25 45
c75 136 253 388 386 548 50 59 62 69 68 55 4 -10 36 -247 73 -528z m-3617 289
c140 -124 252 -227 250 -229 -2 -2 -241 -60 -531 -130 -450 -108 -530 -125
-544 -113 -26 20 -215 278 -278 379 -32 49 -54 93 -50 97 5 5 861 217 895 221
3 1 119 -101 258 -225z m5667 101 c219 -53 400 -97 402 -98 5 -5 -196 -298
-267 -390 -41 -53 -82 -96 -91 -97 -17 0 -1049 247 -1055 253 -3 2 109 105
248 229 l252 225 56 -13 c30 -7 235 -56 455 -109z m-4997 -697 c138 -123 248
-226 244 -229 -4 -4 -255 -66 -559 -139 l-552 -132 -93 78 c-135 114 -401 378
-386 383 29 10 1064 259 1080 260 9 1 129 -99 266 -221z m4386 86 l536 -129
-128 -128 c-122 -124 -334 -314 -360 -324 -18 -8 -1122 259 -1115 269 3 5 116
108 251 229 159 141 253 218 263 216 9 -3 258 -62 553 -133z m-2959 -434 c95
-241 169 -505 215 -757 12 -63 20 -119 18 -125 -5 -13 -448 379 -448 396 0 22
92 721 97 736 6 18 44 -63 118 -250z m879 -120 c25 -201 47 -368 46 -372 0 -4
-101 -98 -225 -208 -183 -163 -225 -197 -225 -178 0 48 71 369 114 518 68 236
221 631 237 612 3 -4 27 -171 53 -372z m-1401 -362 c-25 -11 -853 -208 -871
-208 -23 0 -333 158 -452 230 -174 105 -265 169 -249 174 8 3 255 63 549 134
l535 128 253 -225 c203 -182 249 -227 235 -233z m2780 327 c287 -69 530 -128
540 -131 16 -5 14 -9 -15 -31 -149 -111 -632 -373 -686 -373 -41 1 -873 204
-873 213 0 11 489 447 501 447 6 0 245 -56 533 -125z m-2387 -655 c115 -102
217 -193 229 -203 19 -18 16 -18 -105 -12 -240 11 -530 58 -790 125 -155 41
-318 94 -300 98 8 2 179 43 380 91 201 49 368 88 372 88 3 -1 100 -85 214
-187z m1646 75 c158 -38 284 -72 280 -76 -27 -26 -443 -134 -647 -168 -162
-28 -417 -53 -490 -49 l-60 3 225 201 225 200 90 -21 c49 -12 219 -53 377 -90z"/>
</g>
</svg>
